
        <svg xmlns="http://www.w3.org/2000/svg" xmlns:xlink="http://www.w3.org/1999/xlink" version="1.1" width="3260.8695652173915" height="854.8402006729789" viewBox="0 0 3260.8695652173915 854.8402006729789">
			
			<g transform="scale(13.043478260869565) translate(10, 10)">
				<defs id="SvgjsDefs1051"/><g id="SvgjsG1052" featureKey="PG4fjM-0" transform="matrix(0.6,0,0,0.6,0,0)" fill="#000"><path xmlns="http://www.w3.org/2000/svg" d="M96.728,0H3.278C1.227,0,0,1.228,0,3.272v59.842c0,2.051,2.045,3.272,4.097,3.272h9.384l-2.525,4.694  c-0.403,0.747-0.125,1.685,0.623,2.087l4.731,2.538c0.753,0.415,1.684,0.13,2.086-0.617l4.689-8.702h73.643  c2.039,0,3.272-1.222,3.272-3.272V3.272C100,1.228,98.767,0,96.728,0z M20.316,2.111c1.304,0,2.36,1.055,2.36,2.359  s-1.056,2.365-2.36,2.365s-2.359-1.061-2.359-2.365S19.012,2.111,20.316,2.111z M13.873,2.111c1.31,0,2.365,1.055,2.365,2.359  s-1.055,2.365-2.365,2.365c-1.304,0-2.36-1.061-2.36-2.365S12.568,2.111,13.873,2.111z M7.434,2.111c1.304,0,2.36,1.055,2.36,2.359  s-1.056,2.365-2.36,2.365S5.069,5.774,5.069,4.47C5.075,3.166,6.13,2.111,7.434,2.111z M93.858,61.738h-68.26l3.623-6.734  l8.644,4.672c0.462,0.249,1.025,0.236,1.488-0.024c0.457-0.261,0.753-0.747,0.777-1.269l1.328-31.166  c0.03-0.581-0.278-1.12-0.788-1.411c-0.546-0.374-1.133-0.255-1.613,0.077L13.001,43.716c-0.438,0.309-0.688,0.818-0.658,1.352  c0.024,0.546,0.326,1.021,0.8,1.27l8.638,4.659l-5.786,10.73H5.431V19.256h88.428V61.738z M93.858,15.479H5.431V9.806h88.428V15.479  z"/></g><g id="SvgjsG1053" featureKey="jxYttZ-0" transform="matrix(1.9082989963493378,0,0,1.9082989963493378,80.5410604634396,-0.8769545437603892)" fill="#000"><path d="M10.986 13.6328 l-0.75195 0.80078 l2.6074 5.5566 l-5.2832 0 l-0.83008 -2.041 c-0.5957 0.67383 -1.2109 1.3184 -1.7871 2.041 l-5.2246 0 l5.1563 -5.4883 c-0.14648 -0.29297 -0.27344 -0.57617 -0.41992 -0.86914 l-0.88867 0 c-0.71289 -1.5234 -1.4844 -3.0762 -2.1289 -4.6094 l5.2246 0 l0.83984 1.9824 c0.55664 -0.6543 1.1328 -1.3281 1.7285 -1.9824 l5.2148 0 l-4.3457 4.6094 l0.88867 0 z M21.37695 13.789100000000001 l-1.0547 0 c0.029297 -0.10742 0.048828 -0.22461 0.048828 -0.3418 c0.13672 -1.1035 -0.3125 -1.1719 -1.2109 -0.67383 l-0.23438 1.0156 l1.0449 0 l-1.4355 6.2109 l-4.6387 0 l1.4453 -6.2109 l-1.0547 0 l1.9629 -8.5547 l4.6387 0 l-0.94727 4.1113 c1.4648 -0.67383 3.9453 -0.9375 4.9609 0.56641 c0.49805 0.74219 0.57617 1.8066 0.24414 3.2227 l-0.15625 0.6543 l1.0645 0 l-1.4258 6.2109 l-4.668 0 l1.2207 -5.3125 c0.048828 -0.17578 0.13672 -0.53711 0.19531 -0.89844 z M31.601528125 13.6328 l-1.4453 6.3574 l-4.5801 0 l1.4551 -6.3574 l-0.88867 0 l1.0645 -4.6094 l4.5801 0 l-0.13672 0.52734 c1.2891 -0.6543 2.1973 -0.6543 3.5352 -0.41016 l-0.89844 3.877 l-1.2109 0 c-0.20508 -0.92773 -1.9238 -0.57617 -2.2461 0.14648 l-0.11719 0.46875 l0.88867 0 z M39.667928125 16.6699 l-0.77148 3.3301 l-3.3887 0 l0.76172 -3.3301 l3.3984 0 z M52.724421875000004 13.6328 l-1.4453 6.3672 l-4.6191 0 l0.078125 -0.51758 c-4.4141 1.7773 -6.1719 -0.87891 -5.2344 -4.8926 c0.068359 -0.32227 0.12695 -0.61523 0.26367 -0.95703 l-1.084 0 c1.084 -2.9785 4.0625 -5.8887 7.4023 -4.6875 l0.019531 0 l0.86914 -3.7695 l4.5703 0 l-1.9336 8.457 l1.1133 0 z M45.078121875 13.6328 l1.1035 0 c-0.82031 1.6016 -0.69336 3.7402 1.2695 2.9004 l0.68359 -2.9004 l-1.1133 0 l0.33203 -1.4063 c-0.9668 -0.22461 -1.8066 0.45898 -2.2754 1.4063 z M47.451221875 16.5332 c0.048828 -0.019531 0.097656 -0.048828 0.12695 -0.068359 c0 0 -0.029297 0.019531 -0.12695 0.068359 z M54.453090625 14.5703 c0.078125 -0.33203 0.18555 -0.625 0.2832 -0.9375 l-1.084 0 c2.3438 -6.377 12.383 -7.0117 11.084 0 l1.0938 0 c-0.019531 0.11719 -0.019531 0.23438 -0.048828 0.36133 l-0.41992 1.6309 l-6.4648 0 c-0.33203 2.4121 4.248 1.6797 4.6973 0.81055 l1.4941 0 l-0.71289 2.7832 c-3.8574 2.2168 -11.357 1.6602 -9.9219 -4.6484 z M61.376990625 12.685500000000001 c0.21484 -1.0645 -2.1289 -1.6699 -3.2324 0 c0.0097656 0 3.2324 0.0097656 3.2324 0 z M76.552875 13.6328 l-3.6523 6.3574 l-4.5313 0 l-0.72266 -6.3574 l-0.89844 0 l-0.52734 -4.6094 l4.7852 0 l0.29297 4.3457 c0.77148 -1.4258 1.5039 -2.9199 2.3047 -4.3457 l4.7168 0 l-2.6563 4.6094 l0.88867 0 z"/></g>
			</g>
		</svg>
	